<svg id="Layer_1" enable-background="new 0 0 512 512" height="512" viewBox="0 0 512 512" width="512" xmlns="http://www.w3.org/2000/svg"><g><g id="XMLID_297_"><g><g id="XMLID_1031_"><g id="XMLID_1032_"><g id="XMLID_1091_"><g id="XMLID_1108_"><g id="XMLID_1112_"><g id="XMLID_1171_"><g id="XMLID_1186_"><g id="XMLID_1187_"><g id="XMLID_1188_"><g id="XMLID_1189_"><g id="XMLID_1190_"><g id="XMLID_1191_"><g id="XMLID_1192_"><g id="XMLID_1201_"><circle cx="256" cy="256" fill="#ff908a" r="256"/></g></g></g></g></g></g></g></g></g></g></g></g></g></g></g></g><path d="m512 256c0-9.776-.567-19.418-1.634-28.909l-129.708-129.708c-32.371-34.042-219.104-33.113-251.613 2.447l108.027 107.765-195.48 25.388 107.033 106.684-2.696 96.225 73.496 73.496c11.948 1.709 24.155 2.612 36.575 2.612 141.385 0 256-114.615 256-256z" fill="#ff6f64"/><g><g><g><path d="m408.099 234.204h30v113.532h-30z" fill="#e9edf5"/></g></g><g><g><path d="m446.148 385.109h-46.098v-28.009c0-10.862 8.806-19.668 19.668-19.668h6.762c10.862 0 19.668 8.806 19.668 19.668z" fill="#ffc627"/></g></g><g><path d="m145.929 244.872h220.141v128.475h-220.141z" fill="#436375"/></g><g><path d="m256 244.87h110.07v128.48h-110.07z" fill="#274a59"/></g><g><path d="m470.409 228.983-214.409 68.693-214.409-68.693 214.409-47.635z" fill="#5a7784"/></g><g><g><path d="m470.41 228.98-104.34 33.43-110.07 35.27v-116.33z" fill="#436375"/></g></g><g><path d="m145.929 362.891h220.141v69.001h-220.141z" fill="#fedd55"/></g><g><path d="m256 362.89h110.07v69h-110.07z" fill="#ffc627"/></g><g><g><path d="m359.338 117.422c-26.462-28.945-64.127-45.547-103.338-45.547s-76.876 16.602-103.338 45.547l-23.617-21.592c32.509-35.56 78.782-55.955 126.955-55.955s94.446 20.395 126.955 55.955z" fill="#fff"/></g><g><g><path d="m382.96 95.83-23.62 21.59c-26.46-28.94-64.13-45.54-103.34-45.54v-32c48.17 0 94.45 20.39 126.96 55.95z" fill="#e9edf5"/></g></g><g><path d="m297.151 153.883c-11.814-9.371-26.044-14.324-41.151-14.324s-29.338 4.953-41.151 14.324l-19.887-25.07c17.279-13.706 38.956-21.254 61.038-21.254s43.759 7.548 61.038 21.254z" fill="#fff"/></g><g><path d="m317.04 128.81-19.89 25.07c-11.81-9.37-26.04-14.32-41.15-14.32v-32c22.08 0 43.76 7.55 61.04 21.25z" fill="#e9edf5"/></g></g></g></g></svg>