<svg height="512" viewBox="0 0 64 64" width="512" xmlns="http://www.w3.org/2000/svg"><g id="flat"><rect fill="#50b4f8" height="7.071" rx="3.536" transform="matrix(.707 -.707 .707 .707 -21.438 15.744)" width="9.192" x="3.689" y="30.214"/><path d="m31 36h22v25h-22z" fill="#cdeef6"/><path d="m52 32h-20v-25l4-4h12l4 4z" fill="#ffd782"/><path d="m41 21h2v3h-2z" fill="#394d5c"/><path d="m32 15h8v4h-8z" fill="#f4f4e6"/><path d="m44 15h8v4h-8z" fill="#f4f4e6"/><path d="m40 16h4v2h-4z" fill="#ad6327"/><path d="m42.036 29a6.006 6.006 0 0 1 -6-6h2a4 4 0 0 0 8 0h2a6.007 6.007 0 0 1 -6 6z" fill="#394d5c"/><path d="m32 11s10 2 13-2a7.914 7.914 0 0 0 7 2v-4a4 4 0 0 0 -4-4h-12a4.012 4.012 0 0 0 -4 4z" fill="#394d5c"/><path d="m31 36-7 7-6-6-4 4 10 10 7-7z" fill="#92cdde"/><path d="m18 37v-3a4 4 0 0 0 -4-4h-5v2l2.785 2.785-1.749 2.215 3.964 4z" fill="#ffd782"/><path d="m53 36h2a4 4 0 0 1 4 4v21a0 0 0 0 1 0 0h-6a0 0 0 0 1 0 0v-25a0 0 0 0 1 0 0z" fill="#92cdde"/><path d="m36 36 6 16 6-16z" fill="#f4f4e6"/><path d="m41 50.269h2v10.731h-2z" fill="#92cdde"/><path d="m40 36-1 8 3 8 3-8-1-8z" fill="#2d75bb"/><path d="m42 52 7-3v-13h-1z" fill="#92cdde"/><path d="m42 52-7-3v-13h1z" fill="#92cdde"/><path d="m45 54h5v2h-5z" fill="#f4f4e6"/><path d="m54 18h-2v2h2a1 1 0 0 1 1 1v11a7.008 7.008 0 0 1 -7 7h-12a7.008 7.008 0 0 1 -7-7v-11a1 1 0 0 1 1-1h2v-2h-2a3 3 0 0 0 -3 3v11a9.011 9.011 0 0 0 9 9h5v10a3 3 0 0 1 -3 3h-23a6.006 6.006 0 0 1 -6-6v-14h-2v14a8.009 8.009 0 0 0 8 8h23a5.006 5.006 0 0 0 5-5v-10h5a9.011 9.011 0 0 0 9-9v-11a3 3 0 0 0 -3-3z" fill="#b11e48"/></g></svg>