<svg id="Layer_1" enable-background="new 0 0 256 256" height="512" viewBox="0 0 256 256" width="512" xmlns="http://www.w3.org/2000/svg"><g><g><g><g><path d="m233.815 206.43c-2.544 0-4.607-2.062-4.607-4.607v-21.06c0-1.814-1.476-3.291-3.291-3.291h-38.72c-7.016 0-12.723-5.708-12.723-12.724s5.708-12.723 12.723-12.723h26.654c1.936 0 3.51-1.575 3.51-3.51v-.878c0-1.935-1.575-3.51-3.51-3.51h-68.115c-2.544 0-4.607-2.062-4.607-4.607s2.062-4.607 4.607-4.607h68.115c7.016 0 12.724 5.708 12.724 12.723v.878c0 7.016-5.708 12.724-12.724 12.724h-26.654c-1.935 0-3.51 1.575-3.51 3.51s1.575 3.51 3.51 3.51h38.72c6.895 0 12.504 5.609 12.504 12.504v21.06c.001 2.546-2.061 4.608-4.606 4.608z" fill="#a4c9ff"/></g></g></g><g><g><path d="m238.007 220.69h-19.744v-30.273h19.744c2.181 0 3.949 1.768 3.949 3.949v22.376c0 2.18-1.768 3.948-3.949 3.948z" fill="#a4c9ff"/></g></g><g><g><path d="m238.007 190.416h-8.802v30.273h8.802c2.181 0 3.949-1.768 3.949-3.949v-22.376c0-2.18-1.768-3.948-3.949-3.948z" fill="#f9a7a7"/></g></g><g><g><path d="m80.936 190.416h-49.798c-2.181 0-3.949 1.768-3.949 3.949v22.376c0 2.181 1.768 3.949 3.949 3.949h49.798 137.327v-30.273h-137.327z" fill="#e0ebfc"/></g></g><g><g><path d="m238.007 222.689h-19.743c-1.104 0-2-.896-2-2v-30.273c0-1.104.896-2 2-2h19.743c3.28 0 5.948 2.669 5.948 5.949v22.376c0 3.28-2.668 5.948-5.948 5.948zm-17.743-4h17.743c1.074 0 1.948-.874 1.948-1.948v-22.376c0-1.075-.874-1.949-1.948-1.949h-17.743z" fill="#3762cc"/></g></g><g><g><g><g><path d="m118.038 133.999c10.498-1.792 20.39-6.297 28.899-13.179 1.483-1.2 1.038-3.587-.778-4.171-10.418-3.353-21.269-3.99-31.707-1.877-5.577.952-10.983 2.67-16.101 5.103 6.523-3.453 12.463-7.887 17.608-13.182 8.164-7.934 14.296-17.749 17.909-28.694.618-1.871-1.174-3.663-3.045-3.045-10.945 3.613-20.761 9.745-28.694 17.909-4.25 4.131-7.947 8.774-11.027 13.819 2.58-8.586 3.829-17.467 3.693-26.396.227-14.865-3.385-29.592-10.582-43.055-1.368-2.558-5.037-2.558-6.405 0-7.198 13.461-10.811 28.189-10.584 43.053-.139 9.105 1.169 18.158 3.853 26.901-3.14-5.24-6.941-10.055-11.333-14.324-7.934-8.163-17.749-14.295-28.694-17.908-1.871-.618-3.663 1.174-3.045 3.045 3.613 10.945 9.745 20.761 17.909 28.694 5.145 5.294 11.085 9.729 17.608 13.182-5.118-2.433-10.524-4.151-16.101-5.103-10.439-2.112-21.289-1.476-31.707 1.877-1.816.585-2.261 2.971-.778 4.171 8.509 6.883 18.401 11.387 28.899 13.179 6.631 1.342 13.428 1.566 20.175.697-3.561.465-7.05 1.338-10.408 2.619-7.831 2.715-14.815 7.525-20.347 14.04-.606.714-.202 1.824.721 1.981 8.426 1.435 16.867.63 24.612-2.324 6.51-2.257 12.433-5.964 17.425-10.893l.001.001 2.362-1.68-3.136 37.033c-.132 1.56 1.099 2.899 2.664 2.899h3.106 3.106c1.566 0 2.796-1.339 2.664-2.899l-3.128-36.941 2.135 1.588h.004c4.992 4.928 10.914 8.635 17.424 10.892 7.745 2.954 16.186 3.758 24.612 2.324.923-.157 1.327-1.267.721-1.981-5.533-6.515-12.516-11.325-20.347-14.04-3.385-1.291-6.904-2.163-10.496-2.625v-.008c6.797.894 13.649.67 20.333-.682z" fill="#6bdddd"/></g></g><g><g><path d="m84.115 180.372h-6.213c-1.305 0-2.559-.551-3.44-1.511-.883-.961-1.326-2.257-1.217-3.557l2.745-32.405c-4.913 4.488-10.539 7.85-16.748 10.003-8.003 3.053-16.874 3.892-25.603 2.405-1.134-.193-2.083-.986-2.478-2.068-.395-1.083-.177-2.301.566-3.178 4.864-5.728 10.883-10.239 17.574-13.201-1.968-.208-3.924-.509-5.864-.901-10.729-1.83-21.041-6.531-29.762-13.585-1.258-1.017-1.854-2.641-1.557-4.237.298-1.598 1.44-2.897 2.98-3.393 10.675-3.437 21.988-4.104 32.716-1.934.74.126 1.479.266 2.215.419-1.938-1.614-3.79-3.33-5.553-5.144-8.316-8.081-14.684-18.282-18.374-29.461-.523-1.588-.111-3.312 1.075-4.498 1.188-1.185 2.906-1.598 4.497-1.073 11.179 3.689 21.38 10.057 29.502 18.415 1.924 1.869 3.75 3.857 5.464 5.948-1.03-5.673-1.506-11.414-1.418-17.163-.231-15.071 3.51-30.296 10.818-43.968.98-1.835 2.883-2.976 4.965-2.976 2.083 0 3.986 1.14 4.968 2.976 7.309 13.674 11.05 28.898 10.818 44.028.087 5.635-.373 11.283-1.371 16.87 1.666-2.016 3.439-3.938 5.312-5.757 8.081-8.317 18.282-14.685 29.461-18.374 1.588-.524 3.31-.111 4.497 1.073 1.187 1.187 1.599 2.91 1.075 4.498-3.69 11.179-10.058 21.38-18.415 29.502-1.744 1.795-3.584 3.498-5.51 5.104.755-.158 1.513-.302 2.272-.432 10.667-2.157 21.98-1.491 32.657 1.946 1.539.494 2.682 1.794 2.979 3.392.298 1.597-.299 3.221-1.557 4.238-8.712 7.046-19.013 11.745-29.791 13.591-1.948.393-3.912.693-5.885.901 6.662 2.949 12.687 7.463 17.552 13.193.744.877.962 2.094.568 3.178-.395 1.083-1.344 1.876-2.478 2.069-8.729 1.484-17.601.647-25.661-2.426-6.061-2.102-11.6-5.389-16.455-9.77l2.727 32.191c.11 1.299-.332 2.596-1.215 3.556-.878.965-2.133 1.516-3.438 1.516zm-5.74-43.932c.341 0 .684.087.991.263.677.387 1.067 1.13 1.002 1.906l-3.137 37.032c-.021.257.101.432.175.513.075.081.239.218.496.218h6.213c.258 0 .422-.137.496-.218.075-.081.197-.256.175-.512l-3.128-36.941c-.066-.784.333-1.534 1.021-1.917.688-.382 1.537-.327 2.166.144l2.065 1.536c.102.068.197.146.285.233 4.811 4.749 10.42 8.257 16.674 10.426 7.016 2.675 14.648 3.513 22.218 2.458-5.12-5.67-11.504-9.936-18.543-12.377-3.258-1.242-6.636-2.086-10.096-2.53-.998-.128-1.745-.978-1.745-1.983 0-.576.248-1.128.681-1.508s1.003-.559 1.58-.484c6.602.867 13.223.646 19.678-.659.02-.004.04-.008.06-.012 10.115-1.727 19.79-6.14 27.979-12.763.153-.124.161-.283.14-.395-.021-.111-.085-.258-.272-.317-10.025-3.229-20.641-3.855-30.698-1.822-5.432.929-10.674 2.59-15.64 4.95-.983.468-2.158.063-2.646-.909-.488-.973-.109-2.156.852-2.665 6.368-3.37 12.125-7.68 17.109-12.808 7.938-7.715 13.955-17.358 17.444-27.928.051-.154.016-.294-.104-.415-.12-.119-.256-.156-.415-.104-10.569 3.488-20.213 9.506-27.887 17.403-4.146 4.029-7.75 8.547-10.754 13.467-.525.859-1.605 1.194-2.522.784-.918-.41-1.39-1.438-1.1-2.401 2.527-8.414 3.741-17.091 3.607-25.791.222-14.515-3.356-29.065-10.346-42.143-.416-.777-1.146-.861-1.439-.861s-1.022.084-1.438.861c-6.989 13.075-10.567 27.627-10.346 42.082-.136 8.92 1.131 17.764 3.765 26.345.297.967-.175 2.003-1.099 2.414-.925.411-2.009.069-2.529-.799-3.063-5.111-6.768-9.794-11.011-13.917-7.715-7.938-17.358-13.956-27.928-17.444-.154-.053-.294-.016-.415.104-.12.121-.155.261-.104.415 3.489 10.569 9.507 20.213 17.403 27.887 5.025 5.169 10.782 9.479 17.15 12.849.961.509 1.34 1.692.852 2.665-.486.973-1.662 1.378-2.646.909-4.966-2.36-10.208-4.021-15.58-4.938-10.116-2.047-20.733-1.416-30.757 1.81-.188.061-.253.207-.273.318-.021.111-.014.271.14.394 8.188 6.624 17.864 11.037 27.979 12.764 6.444 1.304 13.013 1.53 19.583.686 1.072-.151 2.096.63 2.238 1.727.142 1.095-.63 2.097-1.725 2.24-.001 0-.002 0-.004 0-.001 0-.001 0-.002.001-3.416.446-6.764 1.288-9.948 2.503-7.093 2.46-13.479 6.728-18.601 12.397 7.567 1.054 15.198.218 22.16-2.438 6.311-2.188 11.92-5.696 16.732-10.447.077-.075.159-.145.247-.206l2.363-1.68c.346-.248.752-.372 1.159-.372z" fill="#3762cc"/></g></g></g><g><g><g><path d="m80.937 132.434c-.553 0-1-.447-1-1v-44.036c0-.553.447-1 1-1s1 .447 1 1v44.035c0 .553-.448 1.001-1 1.001z" fill="#e0ebfc"/></g></g><g><g><path d="m80.937 132.434c-.278 0-.555-.115-.752-.341l-20.388-23.286c-.364-.416-.322-1.048.093-1.411.415-.365 1.048-.323 1.411.093l20.388 23.286c.364.416.322 1.048-.093 1.411-.191.167-.425.248-.659.248z" fill="#e0ebfc"/></g></g><g><g><path d="m80.937 132.434c-.234 0-.469-.081-.659-.248-.415-.363-.457-.995-.093-1.411l20.387-23.286c.363-.416.994-.458 1.411-.093.415.363.457.995.093 1.411l-20.387 23.286c-.198.225-.474.341-.752.341z" fill="#e0ebfc"/></g></g><g><g><path d="m105.255 145.119c-.155 0-.313-.036-.462-.113l-24.319-12.686c-.376-.196-.587-.608-.527-1.029.061-.42.38-.756.796-.838l34.451-6.825c.541-.114 1.068.244 1.175.786s-.244 1.068-.786 1.175l-31.662 6.273 21.799 11.37c.489.256.679.859.424 1.35-.18.342-.529.537-.889.537z" fill="#e0ebfc"/></g></g><g><g><path d="m56.617 145.119c-.361 0-.709-.195-.888-.537-.255-.49-.065-1.094.424-1.35l21.8-11.37-31.663-6.273c-.542-.106-.894-.633-.786-1.175.106-.542.635-.899 1.175-.786l34.452 6.825c.416.082.735.418.796.838.06.421-.151.833-.527 1.029l-24.32 12.686c-.149.077-.308.113-.463.113z" fill="#e0ebfc"/></g></g></g></g><g><g><path d="m54.061 222.689c-.918 0-1.745-.636-1.951-1.569-.237-1.079.444-2.146 1.522-2.384l137.328-30.273c1.081-.242 2.146.443 2.384 1.522.237 1.079-.444 2.146-1.522 2.384l-137.329 30.274c-.145.032-.29.046-.432.046z" fill="#3762cc"/></g></g><g><g><path d="m218.264 222.689h-187.125c-3.28 0-5.949-2.668-5.949-5.948v-22.376c0-3.28 2.669-5.949 5.949-5.949h187.125c1.104 0 2 .896 2 2v30.273c0 1.105-.896 2-2 2zm-187.125-30.273c-1.075 0-1.949.874-1.949 1.949v22.376c0 1.074.874 1.948 1.949 1.948h185.125v-26.273z" fill="#3762cc"/></g></g></g></svg>