<svg id="Capa_1" enable-background="new 0 0 512 512" height="512" viewBox="0 0 512 512" width="512" xmlns="http://www.w3.org/2000/svg"><g><circle cx="256" cy="256" fill="#54747f" r="256"/><path d="m412.017 167.253s-.173-.168-.259-.254c-.329-.34-65-65-65-65l-166.288 117.779s95.619 95.622 95.933 95.934c-6.228 8.139-6.403 19.288-6.403 19.288-.304-.305-164.749-164.37-164.749-164.37l15.901 190.047s41.41 41.411 41.615 41.616c1.418 4.545 2.165 9.919 2.165 16.568v10.137l82.857 82.858c2.728.086 5.462.145 8.21.145 141.385 0 256-114.615 256-256 0-2.862-.064-5.708-.157-8.548l-82.682-82.683z" fill="#455e72"/><g><path d="m367.665 155.235c0 35.944-35.647 66.246-80.775 104.596-7.771 6.609-15.84 13.461-24.064 20.638l-6.663 5.812-6.663-5.812c-8.224-7.177-16.293-14.029-24.064-20.638-45.128-38.35-80.775-68.652-80.775-104.596 0-36.323 24.848-71.956 60.82-72.234 13.698-.108 32.376 5.967 50.683 27.017 12.552-14.697 30.602-26.988 50.007-27.017 27.302-.055 59.861 27.01 61.441 69.213.033 1.021.053 2.028.053 3.021z" fill="#e27266"/><path d="m367.665 155.235c0 35.944-35.647 66.246-80.775 104.596-7.771 6.609-15.84 13.461-24.064 20.638l-6.663 5.812v-176.262c12.552-14.697 30.602-26.988 50.007-27.017 27.302-.055 59.861 27.01 61.441 69.213.034 1.02.054 2.027.054 3.02z" fill="#c7475a"/><path d="m90.384 164.77c24.512 0 23.439 29.588 23.865 52.507v10.339c.406 29.396 3.042 67.307 37.708 93.662 7.907 6.082 17.84 11.353 29.599 16.017.811-1.622 6.488-16.827 7.298-19.057-7.501-2.839-14.596-6.285-22.503-11.556-19.867-16.827-21.49-24.734-20.07-28.383 2.433-6.082 15.61-4.46 22.097-3.243 18.854 3.649 43.588 16.016 59.199 31.626 10.947 9.934 18.448 22.503 18.448 36.694v85.621h-81.093v-10.137c0-23.518-9.326-31.086-24.733-42.439-23.721-17.638-56.36-41.763-56.36-140.696v-70.955z" fill="#f7e0ba"/><path d="m266.299 185.043v-20.273h-10.137-10.137v20.273h-20.273v20.274h20.273v20.273h10.137 10.137v-20.273h20.273v-20.274z" fill="#e9f2f2"/><path d="m266.299 205.317h20.273v-20.274h-20.273v-20.273h-10.137v60.82h10.137z" fill="#d5e5e5"/><path d="m422.616 164.77c-24.512 0-24.115 29.588-24.541 52.507v10.339c-.406 29.396-3.041 67.307-37.708 93.662-7.907 6.082-17.84 11.353-29.599 16.017-.81-1.622-6.488-16.827-7.298-19.057 7.501-2.839 14.596-6.285 22.503-11.556 19.867-16.827 21.49-24.734 20.07-28.383-2.433-6.082-15.61-4.46-22.097-3.243-18.854 3.649-43.588 16.016-59.199 31.626-10.947 9.934-18.448 22.503-18.448 36.694v85.621h81.093v-10.137c0-23.518 9.326-31.086 24.733-42.439 23.721-17.638 57.036-41.763 57.036-140.696v-70.955z" fill="#efbeaa"/></g></g></svg>