<svg id="Layer_1" enable-background="new 0 0 512 512" height="512" viewBox="0 0 512 512" width="512" xmlns="http://www.w3.org/2000/svg"><g><g><path d="m497 512h-.001l-98.999-.013-30-40.987-30 40.979-164-.021-32.915-25.958-27.085 25.95-99.002-.013c-8.284-.001-14.998-6.716-14.998-15v-59.396c0-67.904 49.272-124.535 114-136.138 7.971-1.429 19.219 36.661 27.596 36.661l28.596-38.835h172.596l29.617 48.537c8.377 0 17.625-47.792 25.596-46.363 64.728 11.602 114 68.234 114 136.138v59.459c0 3.979-1.581 7.794-4.394 10.607-2.814 2.813-6.629 4.393-10.607 4.393z" fill="#ff8856"/></g><path d="m398 301.403c-7.971-1.429-17.219 46.363-25.596 46.363l-29.617-48.537h-86.787v212.74l82 .011 30-40.98 30 40.987 98.998.013h.001c3.978 0 7.793-1.58 10.606-4.393 2.814-2.813 4.395-6.628 4.395-10.607v-59.459c0-67.904-49.272-124.535-114-136.138z" fill="#ff435b"/><g><path d="m412.502 178.457c-6.436 0-12.846-1.375-18.756-4.085-3.26-1.496-5.877-4.11-7.375-7.37l-54.121-117.737c-2.216-4.82-1.721-10.452 1.303-14.812 8.414-12.134 22.244-19.378 36.996-19.378 20.313 0 37.568 13.584 43.123 32.146 14.098 4.704 25.44 16.283 29.403 31.073 1.975 7.37 2.013 15.069.231 22.355 6.04 5.663 10.451 12.945 12.653 21.166 3.111 11.609 1.515 23.737-4.495 34.146s-15.714 17.856-27.324 20.967c-3.816 1.022-7.732 1.529-11.638 1.529z" fill="#f6efea"/></g><g><path d="m101.352 178.458c-3.906 0-7.821-.507-11.64-1.53-23.967-6.422-38.242-31.146-31.82-55.114 2.202-8.22 6.613-15.502 12.653-21.165-1.783-7.286-1.744-14.985.231-22.355 3.963-14.791 15.305-26.369 29.403-31.073 5.555-18.561 22.811-32.146 43.123-32.146 15.478 0 29.68 7.805 37.992 20.877 2.752 4.329 3.102 9.764.926 14.41l-54.636 116.668c-1.494 3.19-4.063 5.752-7.256 7.238-5.973 2.779-12.461 4.19-18.976 4.19zm12.648-17.79h.01z" fill="#fff4f4"/></g><g clip-rule="evenodd" fill-rule="evenodd"><path d="m114 301.404v210.546l60 .008v-212.729h-35.447c-8.377 0-16.582.746-24.553 2.175z" fill="#00429d"/><path d="m398 301.404c-7.971-1.429-16.176-2.175-24.553-2.175h-35.447v212.75h60z" fill="#00347b"/><path d="m256 486c8.262 0 15-6.739 15-15 0-8.262-6.738-15-15-15s-15 6.738-15 15c0 8.261 6.738 15 15 15z" fill="#ff435b"/><path d="m256 428.023c8.262 0 15-6.739 15-15 0-8.262-6.738-15-15-15s-15 6.738-15 15 6.738 15 15 15z" fill="#ff435b"/></g><path d="m256 364.926c-73.455 0-134.976-51.096-150.959-119.684-2.643-11.344 10.852 1.312 10.852-10.837l-14.893-25.926v-53.479c0-85.604 69.396-155 155-155 85.604 0 155 69.396 155 155v48.465l-16.804 27.365c0 10.33 15.794-.479 13.866 9.286-14.047 71.152-76.788 124.81-152.062 124.81z" fill="#ffe4c1"/><path d="m411 155c0-85.604-69.396-155-155-155v364.926c75.274 0 138.015-53.657 152.062-124.81 1.928-9.765-13.866 1.045-13.866-9.286l16.804-27.365z" fill="#fdd1a3"/><path d="m171.477 280.225c2.254 1.206 4.676 1.778 7.065 1.778 5.354 0 10.535-2.875 13.238-7.925 3.909-7.304 1.157-16.394-6.147-20.303l-84.633-45.296v1.446c0 11.917 1.349 23.519 3.895 34.665z" fill="#f6efea"/><path d="m320.549 274.663c2.804 4.719 7.791 7.34 12.909 7.34 2.605 0 5.246-.68 7.648-2.107l66.945-39.781c1.928-9.765 2.948-19.857 2.948-30.188v-6.461l-85.218 50.64c-7.121 4.231-9.464 13.435-5.232 20.557z" fill="#eee1dc"/><g><path d="m340.596 249.438-81-20c-2.361-.583-4.83-.583-7.191 0l-81 20c-6.699 1.653-11.405 7.663-11.405 14.562v67.396c26.418 20.985 59.776 33.529 96 33.529s69.582-12.545 96-33.529v-67.396c0-6.899-4.706-12.909-11.404-14.562z" fill="#fff4f4"/></g><path d="m340.596 249.438-81-20c-1.155-.285-2.336-.426-3.517-.432v135.92c36.193-.018 69.522-12.559 95.921-33.528v-67.398c0-6.899-4.706-12.909-11.404-14.562z" fill="#f6efea"/><path clip-rule="evenodd" d="m256 398.024v30c8.262 0 15-6.739 15-15s-6.738-15-15-15z" fill="#cc2e43" fill-rule="evenodd"/><path clip-rule="evenodd" d="m256 456v30c8.262 0 15-6.739 15-15 0-8.262-6.738-15-15-15z" fill="#cc2e43" fill-rule="evenodd"/><g><path d="m277.336 188h-42.033c-9.685 0-17.536-6.716-17.536-15s7.851-15 17.536-15h42.033c9.685 0 17.536 6.716 17.536 15s-7.851 15-17.536 15z" fill="#00347b"/></g><ellipse clip-rule="evenodd" cx="193.048" cy="173" fill="#fff4f4" fill-rule="evenodd" rx="30" ry="30" transform="matrix(.973 -.233 .233 .973 -34.962 49.68)"/><path d="m193.048 218c-24.813 0-45-20.187-45-45s20.187-45 45-45 45 20.187 45 45-20.187 45-45 45zm0-60c-8.271 0-15 6.729-15 15s6.729 15 15 15 15-6.729 15-15-6.729-15-15-15z" fill="#00429d"/><path d="m277.336 158h-21.335v30h21.335c9.685 0 17.536-6.716 17.536-15s-7.851-15-17.536-15z" fill="#001737"/><circle clip-rule="evenodd" cx="318.954" cy="173" fill="#e0d2cd" fill-rule="evenodd" r="30"/><path d="m318.954 218c-24.813 0-45-20.187-45-45s20.187-45 45-45 45 20.187 45 45-20.187 45-45 45zm0-60c-8.271 0-15 6.729-15 15s6.729 15 15 15 15-6.729 15-15-6.729-15-15-15z" fill="#00347b"/></g></svg>