<svg id="Layer_1" enable-background="new 0 0 512 512" height="512" viewBox="0 0 512 512" width="512" xmlns="http://www.w3.org/2000/svg"><g><g id="XMLID_67_"><g><g id="XMLID_994_"><g id="XMLID_995_"><g id="XMLID_1023_"><g id="XMLID_1024_"><g id="XMLID_1025_"><g id="XMLID_1026_"><g id="XMLID_1027_"><g id="XMLID_1028_"><g id="XMLID_1037_"><g id="XMLID_1055_"><g id="XMLID_1056_"><g id="XMLID_1113_"><g id="XMLID_1114_"><g id="XMLID_1115_"><circle cx="256" cy="256" fill="#776d6b" r="256"/></g></g></g></g></g></g></g></g></g></g></g></g></g></g></g></g><path d="m512 256c0-7.333-.326-14.59-.93-21.767l-136.88-136.88s-114.546-45.963-173.043-6.353-84.425 89.936-74.461 192.267-42.658 122.655-42.658 122.655l93.955 93.955c24.599 7.863 50.809 12.123 78.017 12.123 141.385 0 256-114.615 256-256z" fill="#57555c"/><g><g><path d="m417.85 293.007h-45v-85.206c0-64.431-52.419-116.85-116.85-116.85s-116.85 52.418-116.85 116.85v85.206h-45v-85.206c0-89.244 72.605-161.85 161.85-161.85s161.85 72.605 161.85 161.85z" fill="#fff"/></g><g><path d="m417.85 207.8v85.21h-45v-85.21c0-64.43-52.42-116.85-116.85-116.85v-45c89.24 0 161.85 72.61 161.85 161.85z" fill="#eae1dc"/></g><g><g><g><path d="m170.528 407.657-35.707 9.421c-30.424 8.027-61.595-10.129-69.622-40.553l-11.821-44.802c-8.028-30.423 10.128-61.594 40.552-69.622l35.707-9.421z" fill="#fedd55"/></g><g><path d="m170.306 412.271-43.138-163.495c-2.038-7.722 2.571-15.635 10.293-17.672l26.004-6.861c7.722-2.038 15.635 2.571 17.672 10.293l43.139 163.495c2.038 7.723-2.571 15.634-10.293 17.672l-26.004 6.861c-7.723 2.038-15.635-2.57-17.673-10.293z" fill="#fdb556"/></g></g><g><g><path d="m341.472 407.657 35.707 9.421c30.424 8.027 61.595-10.129 69.622-40.553l11.821-44.802c8.027-30.424-10.129-61.595-40.552-69.622l-35.707-9.421z" fill="#fcc63d"/></g><g><path d="m341.694 412.271 43.138-163.495c2.038-7.722-2.571-15.635-10.293-17.672l-26.004-6.861c-7.722-2.038-15.634 2.571-17.672 10.293l-43.139 163.495c-2.038 7.723 2.571 15.634 10.293 17.672l26.004 6.861c7.723 2.038 15.635-2.57 17.673-10.293z" fill="#fd9126"/></g></g></g></g></g></svg>