<svg id="Layer_1" enable-background="new 0 0 512 512" height="512" viewBox="0 0 512 512" width="512" xmlns="http://www.w3.org/2000/svg"><g><g fill="#fece3f"><ellipse cx="220.305" cy="412.708" rx="23.694" ry="29.857"/><ellipse cx="291.695" cy="412.708" rx="23.694" ry="29.857"/></g><path d="m475.745 58.788-7.09-7.187c-5.991-6.074-15.776-6.144-21.853-.155-6.077 5.988-6.147 15.766-.155 21.839l7.09 7.187c17.641 17.884 27.357 41.678 27.357 67v202.218h-450.189v-202.218c0-25.321 9.716-49.116 27.357-67l7.09-7.187c5.992-6.074 5.922-15.852-.155-21.839-6.077-5.988-15.861-5.918-21.853.155l-7.09 7.187c-23.379 23.7-36.254 55.195-36.254 88.684v217.661c0 8.529 6.919 15.443 15.453 15.443h481.095c8.534 0 15.453-6.914 15.453-15.443v-217.661c-.001-33.489-12.876-64.984-36.256-88.684z" fill="#dcdcdc"/><path d="m232.821 358.829c0 53.449-46.123 106.171-103.018 106.171s-103.018-52.721-103.018-106.171 46.123-87.386 103.018-87.386 103.018 33.937 103.018 87.386z" fill="#2387eb"/><path d="m129.803 271.443c-5.252 0-10.412.291-15.453.858 49.564 5.576 87.565 38.013 87.565 86.528s-38.001 96.427-87.565 104.861c5.041.858 10.2 1.31 15.453 1.31 56.895 0 103.018-52.721 103.018-106.171 0-53.449-46.123-87.386-103.018-87.386z" fill="#207bd6"/><path d="m485.215 358.829c0 53.449-46.123 106.171-103.018 106.171s-103.018-52.721-103.018-106.171 46.123-87.386 103.018-87.386 103.018 33.937 103.018 87.386z" fill="#2387eb"/><path d="m382.197 271.443c-5.252 0-10.412.291-15.453.858 49.564 5.576 87.565 38.013 87.565 86.528s-38.001 96.427-87.565 104.861c5.041.858 10.2 1.31 15.453 1.31 56.895 0 103.018-52.721 103.018-106.171 0-53.449-46.123-87.386-103.018-87.386z" fill="#207bd6"/></g></svg>